<svg width="21" height="20" viewBox="0 0 21 20" fill="none" xmlns="http://www.w3.org/2000/svg">
<rect x="0.539062" width="20" height="20" rx="10" fill="#222426"/>
<g clip-path="url(#clip0_7797_13981)">
<path d="M11.7474 13.091C11.7802 13.2414 12.0311 13.3929 12.4216 13.5194C13.03 13.6962 13.6627 13.7811 14.2977 13.7712C14.9326 13.7813 15.5654 13.6963 16.1738 13.5194C16.5936 13.3838 16.8527 13.2186 16.8527 13.0637V11.9517C16.6776 12.0632 16.4874 12.1506 16.2875 12.2114C15.6414 12.4011 14.969 12.4926 14.2942 12.4826C13.6193 12.4926 12.9469 12.4012 12.3008 12.2114C12.1033 12.1514 11.9152 12.0656 11.7415 11.9562V13.0956L11.7474 13.091ZM7.34673 9.57961C7.25954 9.57547 7.17753 9.5381 7.11849 9.47562C7.05945 9.41313 7.02813 9.33055 7.03132 9.24578C7.02927 9.20375 7.03584 9.16175 7.05063 9.1222C7.06542 9.08265 7.08815 9.04635 7.11749 9.01541C7.14683 8.98446 7.1822 8.95948 7.22155 8.94192C7.26091 8.92436 7.30346 8.91456 7.34673 8.9131H10.0319C10.1187 8.91753 10.2002 8.95486 10.259 9.01707C10.3177 9.07927 10.349 9.16139 10.3461 9.24578C10.3484 9.28781 10.3419 9.32985 10.3273 9.36946C10.3127 9.40906 10.2901 9.44545 10.2608 9.4765C10.2316 9.50756 10.1963 9.53266 10.157 9.55036C10.1177 9.56806 10.0752 9.578 10.0319 9.57961H7.34673ZM15.0681 5.02231H16.1949C16.3004 5.02152 16.4049 5.04127 16.5024 5.08041C16.5999 5.11955 16.6883 5.17727 16.7624 5.25018C16.8368 5.32241 16.8958 5.4082 16.9361 5.50262C16.9763 5.59705 16.997 5.69827 16.9969 5.80047V9.52264H16.3075V5.80731C16.3075 5.77709 16.2951 5.74811 16.2731 5.72674C16.2511 5.70538 16.2213 5.69337 16.1902 5.69337H15.0669V9.52264H14.3821V3.78159C14.3823 3.75186 14.3705 3.72324 14.3493 3.70184C14.3272 3.68121 14.2978 3.66976 14.2672 3.66994H5.8013C5.77111 3.67005 5.74213 3.68148 5.72039 3.70184C5.69916 3.72324 5.68738 3.75186 5.68756 3.78159V13.0694C5.68652 13.0846 5.68885 13.0998 5.69437 13.1141C5.6999 13.1284 5.7085 13.1414 5.7196 13.1521C5.7307 13.1629 5.74405 13.1713 5.75875 13.1767C5.77344 13.182 5.78915 13.1843 5.80482 13.1833H10.2781V13.8543H7.6176V15.0996C7.61772 15.129 7.62948 15.1571 7.65043 15.1782C7.67246 15.1989 7.70191 15.2103 7.73251 15.2101H10.2781V15.8744H7.73602C7.6306 15.8749 7.52611 15.855 7.42867 15.8159C7.33123 15.7768 7.24279 15.7192 7.1685 15.6465C7.09405 15.5741 7.03502 15.4881 6.99478 15.3935C6.95455 15.2988 6.93389 15.1974 6.93399 15.0951V13.8509H5.80599C5.70056 13.8515 5.59607 13.8316 5.49863 13.7925C5.40119 13.7533 5.31275 13.6958 5.23847 13.6231C5.08822 13.4767 5.00387 13.2784 5.00396 13.0716V3.78159C5.00278 3.67893 5.02271 3.57707 5.06258 3.48199C5.10244 3.38691 5.16144 3.30052 5.23612 3.22788C5.31092 3.15522 5.39979 3.09767 5.4976 3.05856C5.59541 3.01945 5.70022 2.99955 5.80599 3.00002H14.2649C14.3701 2.99937 14.4745 3.0192 14.5717 3.05833C14.669 3.09747 14.7572 3.15511 14.8312 3.22788C14.9059 3.30013 14.9651 3.38608 15.0054 3.48074C15.0456 3.5754 15.0661 3.67689 15.0657 3.77931V5.02687L15.0681 5.02231ZM7.34673 6.00213C7.25995 5.9977 7.17843 5.96037 7.11967 5.89817C7.06091 5.83596 7.0296 5.75384 7.03249 5.66945C7.03028 5.62742 7.03669 5.58538 7.05134 5.54577C7.06598 5.50617 7.08858 5.46978 7.11781 5.43873C7.14705 5.40767 7.18234 5.38257 7.22163 5.36487C7.26093 5.34717 7.30345 5.33723 7.34673 5.33563H12.7159C12.8028 5.34034 12.8843 5.37792 12.943 5.44031C13.0018 5.5027 13.033 5.58494 13.0301 5.66945C13.0323 5.71142 13.0259 5.7534 13.0113 5.79294C12.9966 5.83248 12.974 5.86879 12.9447 5.89976C12.9155 5.93072 12.8802 5.95572 12.8409 5.9733C12.8016 5.99087 12.7591 6.00067 12.7159 6.00213H7.34673ZM7.34673 7.79087C7.25995 7.78644 7.17843 7.74911 7.11967 7.6869C7.06091 7.6247 7.0296 7.54258 7.03249 7.45819C7.03028 7.41615 7.03669 7.37412 7.05134 7.33451C7.06598 7.2949 7.08858 7.25852 7.11781 7.22746C7.14705 7.19641 7.18234 7.17131 7.22163 7.15361C7.26093 7.13591 7.30345 7.12597 7.34673 7.12436H12.7159C12.8029 7.12879 12.8846 7.16628 12.9434 7.22874C13.0022 7.29119 13.0333 7.3736 13.0301 7.45819C13.0323 7.50016 13.0259 7.54214 13.0113 7.58168C12.9966 7.62122 12.974 7.65753 12.9447 7.68849C12.9155 7.71946 12.8802 7.74446 12.8409 7.76203C12.8016 7.77961 12.7591 7.78941 12.7159 7.79087H7.34673ZM12.4239 11.8127C13.0324 11.989 13.6651 12.0736 14.3 12.0633C14.9349 12.0737 15.5677 11.9892 16.1761 11.8127C16.5959 11.6771 16.855 11.5119 16.855 11.3569C16.855 11.202 16.61 11.0254 16.1855 10.8887C15.5771 10.7122 14.9443 10.6276 14.3094 10.638C13.6745 10.6278 13.0418 10.7123 12.4333 10.8887C11.5433 11.1781 11.5187 11.5165 12.4333 11.8127H12.4239ZM16.8679 15.258C16.693 15.3691 16.5032 15.4565 16.3039 15.5178C15.6576 15.7065 14.9853 15.7975 14.3106 15.7878C13.6358 15.7976 12.9635 15.7065 12.3172 15.5178C12.1199 15.4569 11.9318 15.3707 11.7579 15.2614V16.321C11.7907 16.4714 12.0417 16.6229 12.4321 16.7494C13.0406 16.9257 13.6734 17.0102 14.3082 17C14.9431 17.0104 15.5759 16.9259 16.1843 16.7494C16.4085 16.6914 16.6162 16.5846 16.7917 16.4372C16.8785 16.346 16.8644 16.2857 16.8644 16.1763V15.258H16.8679ZM11.7497 14.7225C11.7825 14.8729 12.0335 15.0244 12.4239 15.1509C13.0324 15.3272 13.6651 15.4118 14.3 15.4015C14.9349 15.412 15.5677 15.3274 16.1761 15.1509C16.5959 15.0142 16.855 14.8501 16.855 14.6883V13.6629C16.6796 13.774 16.4895 13.8614 16.2899 13.9227C15.6436 14.1114 14.9713 14.2025 14.2965 14.1927C13.6217 14.2025 12.9494 14.1114 12.3032 13.9227C12.1058 13.8618 11.9177 13.7756 11.7438 13.6664V14.7259L11.7497 14.7225Z" fill="#909AA3"/>
</g>
<defs>
<clipPath id="clip0_7797_13981">
<rect width="12" height="14" fill="white" transform="translate(5 3)"/>
</clipPath>
</defs>
</svg>
