<svg width="20" height="20" viewBox="0 0 20 20" fill="none" xmlns="http://www.w3.org/2000/svg">
<rect width="20" height="20" rx="10" fill="#222426"/>
<path d="M16.001 10.003C16.001 13.3132 13.3121 16.0079 10.0038 16.0079C8.88625 16.0079 7.81468 15.7065 6.90305 15.1404C6.89017 15.1349 6.87728 15.1238 6.87001 15.111C6.85712 15.0908 6.85528 15.0633 6.86817 15.043L6.9987 14.8206L8.25952 12.6811C8.27977 12.6499 8.33123 12.6388 8.36243 12.659C8.85132 12.9677 9.41742 13.1315 9.99827 13.1315C11.7241 13.1315 13.1265 11.7307 13.1265 10.0103C13.1265 8.28437 11.7241 6.88219 9.99827 6.88219L9.97433 6.88229C9.95592 6.88229 9.93761 6.87473 9.92472 6.86C9.91183 6.84711 9.90447 6.82879 9.90631 6.81038L9.98897 4.06803C9.99081 4.02946 10.0202 4 10.0588 4C10.7683 4.00921 11.4649 4.14333 12.1174 4.38967C12.7698 4.63601 13.3782 4.99622 13.9094 5.45781C14.0638 5.58815 14.2146 5.73147 14.3689 5.89322C14.4718 6.00922 14.5766 6.12299 14.6723 6.24432C14.7733 6.3638 14.8689 6.49066 14.9498 6.61374L14.9645 6.634C15.0031 6.68729 15.0454 6.74796 15.0785 6.80863C15.1207 6.87482 15.163 6.941 15.198 7.00709C15.2715 7.13026 15.345 7.26808 15.4148 7.41701L15.4884 7.57323C15.4939 7.58427 15.5013 7.60627 15.5086 7.62652C15.5491 7.71655 15.5896 7.81957 15.6392 7.9537C15.6796 8.05478 15.7127 8.15585 15.7366 8.2331C15.7659 8.32312 15.7899 8.41878 15.8138 8.51616C15.845 8.63013 15.8689 8.74593 15.8929 8.85989C15.9259 9.02347 15.9517 9.19257 15.9719 9.39288C15.9918 9.61722 16.001 9.81753 16.001 10.0032" fill="#909AA3"/>
<path d="M8.1963 12.5579C8.17421 12.5708 8.15589 12.5909 8.13932 12.6148L6.75163 14.9731C6.73875 14.9934 6.73138 15.0135 6.72586 15.0356C5.0147 13.9235 4 12.0579 4 10.0067C4 9.27512 4.13053 8.56564 4.38782 7.89844C4.40255 7.91133 4.42086 7.92237 4.44111 7.93148L6.95908 9.03063C6.98302 9.04168 7.01054 9.0472 7.03632 9.0472C6.93525 9.34868 6.88195 9.67952 6.88195 10.0141C6.88185 11.036 7.36899 11.9715 8.19608 12.5579" fill="#909AA3"/>
<path d="M9.84856 4.06248L9.7658 6.79391C9.76212 6.82695 9.76765 6.85826 9.78053 6.88578C9.2365 6.92435 8.72368 7.10082 8.28441 7.40599C8.27889 7.40967 8.26968 7.41336 8.26232 7.4152C7.74213 7.76815 7.3305 8.2809 7.10256 8.86177C7.10256 8.86177 7.10256 8.86361 7.10072 8.86361V8.86545C7.09336 8.88018 7.08047 8.89307 7.064 8.90033C7.05663 8.90402 7.04742 8.90402 7.03822 8.90402C7.02901 8.90402 7.01981 8.90217 7.0107 8.89849L4.49446 7.79934C4.45958 7.78461 4.44485 7.74605 4.45773 7.71116C4.92831 6.56609 5.73329 5.60659 6.78645 4.93556L6.82686 4.99255L6.79013 4.93372C7.69628 4.34742 8.75496 4.02568 9.86131 4C9.85394 4.02016 9.85026 4.04031 9.84842 4.06241" fill="#909AA3"/>
<path d="M8.85364 9.74038V11.6621C8.85364 11.7775 8.76013 11.8712 8.64452 11.8712H8.03334C7.91773 11.8712 7.82422 11.7775 7.82422 11.6621V9.74038C7.82422 9.62496 7.91773 9.53125 8.03334 9.53125H8.64452C8.76013 9.53125 8.85364 9.62496 8.85364 9.74038Z" fill="#909AA3"/>
<path d="M10.5144 9.13101V11.6575C10.5144 11.7729 10.4209 11.8666 10.3053 11.8666H9.71312C9.59771 11.8666 9.504 11.773 9.504 11.6575L9.50391 9.13101C9.50391 9.01559 9.59761 8.92188 9.71303 8.92188H10.3052C10.4209 8.92188 10.5144 9.01559 10.5144 9.13101Z" fill="#909AA3"/>
<path d="M12.1785 8.34976V11.6657C12.1785 11.7811 12.0848 11.8747 11.9694 11.8747H11.3772C11.2618 11.8747 11.1681 11.7812 11.1681 11.6657L11.168 8.34976C11.168 8.23434 11.2617 8.14063 11.3771 8.14063H11.9693C12.0848 8.14053 12.1785 8.23424 12.1785 8.34976Z" fill="#909AA3"/>
</svg>
