<svg width="21" height="20" viewBox="0 0 21 20" fill="none" xmlns="http://www.w3.org/2000/svg">
<rect x="0.078125" width="20" height="20" rx="10" fill="#222426"/>
<path d="M11.7883 3.01562H9.50369V6.49936C9.16236 6.41041 8.88064 6.38074 8.50964 6.38074C6.12119 6.38074 4.57812 7.89394 4.57812 10.2231C4.57812 12.6414 6.03216 13.9023 8.82136 13.9023C9.75555 13.9023 10.6162 13.8134 11.7884 13.5908V3.01562H11.7883ZM9.50369 12.0036C9.17726 12.048 8.96959 12.0627 8.71742 12.0627C7.54533 12.0627 6.90735 11.3953 6.90735 10.1786C6.90735 8.93248 7.57489 8.22037 8.73235 8.22037C9.01407 8.22037 9.23649 8.25001 9.50369 8.33899V12.0036ZM15.4231 3.0279V5.37197H13.1384V3.0279H15.4231ZM13.1384 6.54384H15.4231V11.8403C15.4231 13.6651 15.2894 14.5403 14.8889 15.297C14.5181 16.0241 14.0285 16.4838 13.0196 16.9883L10.898 15.9794C11.9067 15.5047 12.3967 15.0896 12.708 14.4514C13.0344 13.7986 13.1384 13.0419 13.1384 11.0538V6.54384Z" fill="#909AA3"/>
</svg>
