<svg width="20" height="20" viewBox="0 0 20 20" fill="none" xmlns="http://www.w3.org/2000/svg">
<rect width="20" height="20" rx="10" fill="#222426"/>
<g clip-path="url(#clip0_7793_13866)">
<path d="M17 13.8425C16.7962 13.9195 16.5713 13.9194 16.3677 13.842C16.164 13.7646 15.9958 13.6154 15.8946 13.4225L13.8821 10.6394L13.5904 10.2503L11.2553 13.426C11.1602 13.6108 11.0011 13.7547 10.8076 13.8307C10.6142 13.9067 10.3996 13.9097 10.2042 13.839L13.213 9.80232L10.4142 6.1559C10.6154 6.08338 10.8355 6.08242 11.0374 6.15318C11.2393 6.22394 11.4106 6.3621 11.5225 6.5444L13.6085 9.3619L15.7062 6.55607C15.802 6.37453 15.9612 6.23453 16.1535 6.16268C16.3458 6.09084 16.5578 6.09216 16.7492 6.1664L15.663 7.60782L14.1918 9.5229C14.151 9.55935 14.1183 9.60401 14.0959 9.65398C14.0735 9.70394 14.062 9.75807 14.062 9.81282C14.062 9.86757 14.0735 9.9217 14.0959 9.97166C14.1183 10.0216 14.151 10.0663 14.1918 10.1027L16.9942 13.8431L17 13.8425ZM3.00117 9.75215L3.24617 8.54173C3.91934 6.14832 6.66334 5.15257 8.55101 6.63423C9.65642 7.50282 9.93234 8.73248 9.87809 10.1185H3.65101C3.55009 12.5936 5.33626 14.0881 7.62001 13.3245C7.99022 13.1912 8.32161 12.9682 8.58447 12.6754C8.84732 12.3826 9.03345 12.0292 9.12617 11.6468C9.24692 11.2583 9.44584 11.1918 9.81101 11.3038C9.75016 11.7777 9.58264 12.2316 9.32105 12.6314C9.05946 13.0312 8.71062 13.3665 8.30076 13.6121C7.62375 13.9824 6.84699 14.1292 6.08154 14.0314C5.31609 13.9337 4.60114 13.5964 4.03892 13.0678C3.48302 12.4421 3.14705 11.6518 3.08226 10.8173C3.08226 10.6802 3.03559 10.5519 3.00409 10.4288C3.00125 10.2035 2.99989 9.9781 3.00001 9.75273L3.00117 9.75215ZM3.65859 9.58532H9.29009C9.25509 7.79098 8.12284 6.51815 6.61259 6.50648C4.93142 6.48315 3.72859 7.72798 3.65451 9.57715L3.65859 9.58532Z" fill="#909AA3"/>
</g>
<defs>
<clipPath id="clip0_7793_13866">
<rect width="14" height="14" fill="white" transform="translate(3 3)"/>
</clipPath>
</defs>
</svg>
