<svg width="21" height="20" viewBox="0 0 21 20" fill="none" xmlns="http://www.w3.org/2000/svg">
<rect x="0.539062" width="20" height="20" rx="10" fill="#222426"/>
<path d="M12.6306 7.78231L11.6357 5.87875C11.5849 5.78381 11.4865 5.71994 11.3732 5.71994C11.2599 5.71994 11.1614 5.78337 11.1116 5.877L11.1107 5.87875L6.74225 13.7074L12.6306 7.78231ZM16.1209 14.4616L14.8907 6.80756C14.8679 6.66537 14.7459 6.55775 14.5989 6.55775C14.5162 6.55775 14.4418 6.59144 14.388 6.64612L6.625 14.4621L10.9199 16.8823C11.0451 16.9536 11.1947 16.9961 11.3539 16.9961C11.5132 16.9961 11.6633 16.9541 11.7923 16.8801L11.7879 16.8823L16.1209 14.4616ZM6.93912 12.4434L8.23194 4.12744C8.25425 3.98394 8.37675 3.875 8.52506 3.875C8.63794 3.875 8.73638 3.938 8.78625 4.03119L8.78712 4.03294L10.1775 6.64131L6.93912 12.4434Z" fill="#909AA3"/>
</svg>
