<svg width="21" height="20" viewBox="0 0 21 20" fill="none" xmlns="http://www.w3.org/2000/svg">
<rect x="0.539062" width="20" height="20" rx="10" fill="#222426"/>
<g clip-path="url(#clip0_7793_13877)">
<path d="M12.196 4.60475L15.0747 6.26725C15.5507 5.76617 16.3423 5.74633 16.8434 6.22233C16.9297 6.304 17.0032 6.39792 17.0633 6.50058C17.4069 7.10025 17.1986 7.865 16.599 8.20858C16.4975 8.26692 16.3884 8.31067 16.2735 8.33867V11.6631C16.942 11.8223 17.355 12.4932 17.1951 13.1617C17.1671 13.2807 17.121 13.395 17.0598 13.5006C16.7145 14.0973 15.9509 14.3021 15.3524 13.9567C15.238 13.8908 15.1336 13.8057 15.0455 13.7065L12.1843 15.3585C12.4013 16.0142 12.0455 16.7206 11.3904 16.937C11.2638 16.9784 11.1325 17 10.9995 17C10.3106 17.0006 9.7518 16.4429 9.75121 15.754C9.75121 15.6344 9.76813 15.5148 9.80255 15.3987L6.92321 13.738C6.44721 14.2362 5.6568 14.2554 5.15805 13.7788C4.65988 13.3028 4.64121 12.5124 5.11721 12.0137C5.2823 11.8404 5.49405 11.7185 5.72621 11.6619L5.7268 8.3375C5.05596 8.1765 4.64296 7.50158 4.80455 6.83017C4.83196 6.71467 4.8763 6.60325 4.93521 6.5C5.28055 5.90267 6.04471 5.6985 6.64263 6.04383C6.74588 6.10275 6.84038 6.17683 6.92263 6.26375L9.80313 4.60125C9.60713 3.94033 9.98455 3.24675 10.6437 3.05133C10.7586 3.01692 10.8794 3 10.9995 3C11.6885 2.99942 12.2473 3.5565 12.2479 4.24483C12.2485 4.36675 12.2304 4.48867 12.196 4.60475ZM11.8955 5.11633C11.8845 5.12858 11.874 5.13908 11.8617 5.15017L15.6306 11.6777C15.6458 11.6724 15.6633 11.6683 15.6785 11.6643V8.33517C15.0105 8.17008 14.604 7.494 14.7696 6.8255C14.7731 6.8115 14.7766 6.79692 14.7807 6.7835L11.8955 5.11633ZM10.1368 5.15075L10.1018 5.11575L7.21663 6.77942C7.40738 7.4415 7.02588 8.13158 6.36438 8.32233C6.34921 8.327 6.33463 8.3305 6.32005 8.33458V11.6643L6.36905 11.6777L10.138 5.15017L10.1368 5.15075ZM11.3478 5.4465C11.1203 5.51183 10.8794 5.51183 10.6525 5.4465L6.88413 11.9734C7.05563 12.1385 7.17696 12.3497 7.23413 12.5807H14.7655C14.8221 12.3485 14.9446 12.1368 15.1173 11.9717L11.3478 5.4465ZM11.923 14.9122L14.7889 13.2568C14.7801 13.2293 14.7731 13.2019 14.7667 13.1739H7.23238L7.22013 13.2223L10.1012 14.886C10.3275 14.6503 10.646 14.5051 10.9995 14.5051C11.3653 14.5051 11.6937 14.662 11.923 14.9122Z" fill="#909AA3"/>
</g>
<defs>
<clipPath id="clip0_7793_13877">
<rect width="14" height="14" fill="white" transform="translate(4 3)"/>
</clipPath>
</defs>
</svg>
