<svg width="15" height="15" viewBox="0 0 15 15" fill="none" xmlns="http://www.w3.org/2000/svg">
<g clip-path="url(#clip0_7749_13642)">
<path d="M12.0942 3.74625V3.74672C12.0942 4.21266 11.7164 4.59 11.2509 4.59C10.7855 4.59 10.4077 4.21219 10.4077 3.74672C10.4077 3.28078 10.7855 2.90344 11.2509 2.90344C11.7164 2.90391 12.0938 3.28078 12.0942 3.74625ZM7.49813 9.84141C6.20391 9.84141 5.15484 8.79234 5.15484 7.49813C5.15484 6.20391 6.20391 5.15484 7.49813 5.15484C8.79234 5.15484 9.84141 6.20391 9.84141 7.49813C9.84141 8.79188 8.79281 9.84094 7.49906 9.84094H7.49859L7.49813 9.84141ZM7.49813 3.88875C5.50453 3.88875 3.88875 5.505 3.88875 7.49813C3.88875 9.49125 5.505 11.1075 7.49813 11.1075C9.49172 11.1075 11.1075 9.49125 11.1075 7.49813C11.1075 7.49813 11.1075 7.49813 11.1075 7.49766C11.1075 5.50453 9.49172 3.88828 7.49813 3.88828C7.49813 3.88828 7.49813 3.88828 7.49766 3.88828L7.49813 3.88875ZM7.49813 1.73438C9.37453 1.73438 9.59813 1.74375 10.3392 1.77609C10.8094 1.78172 11.2566 1.87078 11.6705 2.02828L11.6438 2.01938C12.2597 2.25938 12.7378 2.7375 12.9727 3.3375L12.9783 3.35344C13.1264 3.74063 13.2145 4.18828 13.2202 4.65563V4.65797C13.2534 5.39953 13.2609 5.62219 13.2609 7.49906C13.2609 9.37594 13.252 9.59906 13.2178 10.3402C13.2089 10.8108 13.1194 11.258 12.9623 11.6719L12.9713 11.6447C12.8503 11.9616 12.6713 12.2316 12.4448 12.4538L12.4444 12.4542C12.2227 12.6811 11.9527 12.8602 11.6513 12.9741L11.6362 12.9792C11.2477 13.1273 10.7986 13.2155 10.3294 13.2211H10.327C9.58078 13.2544 9.36094 13.2619 7.48078 13.2619C5.59969 13.2619 5.38031 13.253 4.63453 13.2188C4.16203 13.2098 3.71297 13.1203 3.29719 12.9633L3.32484 12.9722C3.00797 12.8531 2.73797 12.6736 2.51766 12.4463L2.51719 12.4458C2.28797 12.2255 2.10797 11.955 1.995 11.6522L1.99031 11.6377C1.84266 11.2495 1.75312 10.8009 1.74422 10.3322V10.3284C1.71797 9.59016 1.70859 9.36234 1.70859 7.49109C1.70859 5.61891 1.71797 5.39063 1.74422 4.64344C1.75312 4.17141 1.84219 3.72281 1.99922 3.3075L1.99031 3.33516C2.10609 3.01688 2.28656 2.74594 2.51672 2.52703L2.51766 2.52609C2.73703 2.29547 3.0075 2.11594 3.31078 2.00484L3.32531 2.00016C3.71109 1.85109 4.15688 1.76156 4.62281 1.75359H4.62609C5.37281 1.72734 5.59266 1.71844 7.47234 1.71844L7.49813 1.73438ZM7.49813 0.46875C5.58844 0.46875 5.35031 0.477656 4.60031 0.510938C3.98391 0.524063 3.39938 0.643125 2.85844 0.849844L2.89406 0.838125C2.40656 1.02422 1.99125 1.30031 1.64906 1.64813L1.64859 1.64859C1.29937 1.99078 1.02375 2.40656 0.845625 2.87063L0.837656 2.89406C0.642656 3.39937 0.523594 3.98438 0.510938 4.59469V4.60031C0.475781 5.35031 0.46875 5.58844 0.46875 7.49813C0.46875 9.40781 0.477656 9.64594 0.510938 10.3959C0.524063 11.0123 0.643125 11.5969 0.849844 12.1378L0.838125 12.1022C1.21125 13.0495 1.94672 13.785 2.86969 14.1497L2.89406 14.1581C3.39937 14.3527 3.98438 14.4717 4.59469 14.4848H4.60031C5.35031 14.52 5.58844 14.527 7.49813 14.527C9.40781 14.527 9.64594 14.5181 10.3959 14.4848C11.0123 14.4713 11.5969 14.3527 12.1378 14.1459L12.1022 14.1581C13.0495 13.785 13.785 13.0495 14.1497 12.1266L14.1581 12.1022C14.3531 11.5969 14.4717 11.0119 14.4848 10.4016V10.3959C14.52 9.64594 14.527 9.40781 14.527 7.49813C14.527 5.58844 14.5181 5.35031 14.4848 4.60031C14.4713 3.98391 14.3527 3.39938 14.1459 2.85844L14.1581 2.89406C13.9716 2.40656 13.6959 1.99125 13.3477 1.64906L13.3472 1.64859C13.005 1.29938 12.5892 1.02375 12.1252 0.845625L12.1017 0.837656C11.5964 0.642656 11.0114 0.523594 10.4011 0.510938H10.3955C9.64547 0.475781 9.40734 0.46875 7.49766 0.46875H7.49813Z" fill="white"/>
</g>
<defs>
<clipPath id="clip0_7749_13642">
<rect width="15" height="15" fill="white"/>
</clipPath>
</defs>
</svg>
