<svg width="20" height="20" viewBox="0 0 20 20" fill="none" xmlns="http://www.w3.org/2000/svg">
<rect width="20" height="20" rx="10" fill="#222426"/>
<path d="M8.30272 8.69954C8.17342 8.41364 8.11545 8.08015 8.21424 7.77721C8.31301 7.46749 8.53424 7.21904 8.75548 6.98758C9.3714 6.3715 10.1305 5.91885 10.7329 5.29265C11.0664 4.94886 11.342 4.53703 11.4373 4.0639C11.5156 3.71677 11.4782 3.35942 11.4068 3.01562C11.7267 3.37982 11.8322 3.90055 11.7403 4.37026C11.6416 4.89778 11.3488 5.36404 11.0051 5.76564C10.7295 6.08904 10.4129 6.37491 10.0828 6.64045C9.69818 6.95017 9.32043 7.28368 9.07882 7.71935C8.87451 8.07326 8.82685 8.50893 8.96644 8.89355C9.19451 9.55379 9.72539 10.0439 10.0147 10.6667C9.69474 10.3842 9.38168 10.0915 9.08888 9.78186C8.78269 9.45511 8.49334 9.108 8.30272 8.69954ZM10.0385 8.18217C9.98067 8.72336 10.2631 9.23387 10.6001 9.63552C10.7634 9.81588 10.903 10.0371 10.9097 10.289C10.9166 10.6258 10.7261 10.9391 10.4809 11.1602C10.5388 11.1535 10.5796 11.1024 10.6273 11.0752C10.9949 10.8403 11.3488 10.5442 11.5292 10.1393C11.6483 9.86357 11.6211 9.53678 11.4646 9.28147C11.2807 8.98198 11.0391 8.7165 10.8962 8.38979C10.8178 8.20602 10.7906 7.99161 10.8553 7.79761C10.9404 7.53557 11.1242 7.32112 11.3182 7.13392C11.8525 6.62686 12.4992 6.26595 13.1186 5.87121C12.3358 6.09582 11.5632 6.40557 10.903 6.89231C10.4843 7.20543 10.0964 7.64104 10.0385 8.18217ZM13.7586 10.7417C14.1296 10.7621 14.4937 11.0343 14.5618 11.4088C14.6265 11.7321 14.47 12.052 14.2691 12.297C13.9389 12.6918 13.493 12.9744 13.0439 13.216C12.9995 13.2431 12.9621 13.2772 12.9281 13.3147C13.5203 13.1649 14.1125 12.9404 14.5924 12.5557C14.8578 12.3345 15.0926 12.0417 15.1437 11.6911C15.1914 11.3883 15.0655 11.0751 14.8409 10.8744C14.5685 10.6258 14.184 10.534 13.8232 10.5817C13.6156 10.6089 13.3876 10.6531 13.2446 10.8267C13.4149 10.7928 13.5815 10.7246 13.7586 10.7417ZM6.36958 11.715C6.81536 11.8341 7.27487 11.8682 7.73094 11.8988C8.13935 11.926 8.54783 11.9329 8.95969 11.9294C10.0215 11.9125 11.0902 11.841 12.1316 11.6095C12.2303 11.5858 12.3393 11.5687 12.4279 11.5075C12.6014 11.3951 12.7919 11.3066 12.9792 11.2181C12.1316 11.3542 11.2808 11.4701 10.4231 11.5245C9.55523 11.5789 8.68048 11.613 7.80925 11.5551C7.56081 11.5313 7.3055 11.5176 7.07409 11.4223C7.01956 11.3985 6.94467 11.351 6.97188 11.2794C7.02298 11.1875 7.12508 11.1433 7.21357 11.0956C7.58801 10.9186 7.99639 10.82 8.39463 10.7042C7.71046 10.694 7.02974 10.8675 6.40362 11.1364C6.26403 11.2046 6.10749 11.259 5.99521 11.3747C5.95086 11.4223 5.95086 11.5041 6.00197 11.5449C6.1041 11.6368 6.24016 11.6776 6.36958 11.715ZM11.8833 12.651C11.2876 12.7565 10.6885 12.8553 10.0861 12.8859C9.42581 12.9301 8.76554 12.8926 8.11211 12.8246C7.98622 12.8076 7.86025 12.7872 7.74797 12.7294C7.69012 12.6953 7.63228 12.6409 7.6357 12.5693C7.64246 12.457 7.73769 12.3788 7.80583 12.2971C7.59488 12.3719 7.38381 12.4501 7.20684 12.5898C7.13187 12.6477 7.05705 12.7395 7.07742 12.8416C7.10819 12.9607 7.22388 13.0322 7.32598 13.0866C7.57776 13.216 7.86028 13.2738 8.13604 13.3249C8.8336 13.4373 9.54498 13.4407 10.2461 13.3929C10.9882 13.3351 11.7267 13.2126 12.4448 13.0016C12.2406 12.9097 12.0466 12.8041 11.8833 12.651ZM8.14276 13.8287C7.95218 13.8832 7.75815 13.9479 7.60163 14.0737C7.52321 14.1349 7.46204 14.2406 7.49953 14.3392C7.54719 14.4651 7.66633 14.5401 7.77852 14.6046C8.07131 14.7647 8.40141 14.8395 8.72472 14.8974C9.45658 15.0131 10.2087 14.9961 10.937 14.8668C11.3692 14.7851 11.8015 14.6693 12.2031 14.489C11.941 14.3801 11.6858 14.2575 11.4408 14.1146C11.0154 14.1895 10.5864 14.2678 10.1508 14.295C9.57569 14.3393 8.99362 14.2916 8.41842 14.2202C8.28224 14.1895 8.11211 14.1759 8.02021 14.0568C7.97266 13.958 8.08151 13.8865 8.14276 13.8287ZM12.7988 16.0171C13.2752 15.9185 13.7552 15.806 14.1908 15.5849C14.3269 15.5065 14.4936 15.4214 14.538 15.2581C14.5618 15.1016 14.3984 15.0199 14.2827 14.9552C14.3541 15.037 14.4018 15.1561 14.3303 15.2513C14.2111 15.4113 14.007 15.4725 13.8266 15.5338C13.2617 15.6938 12.6762 15.7585 12.0942 15.8232C10.5525 15.9627 9.0004 15.9967 7.4587 15.8674C6.94136 15.8129 6.41371 15.7551 5.92024 15.5713C5.84203 15.5372 5.7229 15.5032 5.7229 15.3976C5.75344 15.3059 5.84203 15.2547 5.92024 15.2104C6.2742 15.0301 6.66902 14.9313 7.06381 14.9076C6.9482 14.8394 6.81203 14.8327 6.6793 14.8361C6.3491 14.8463 6.02578 14.9313 5.71272 15.037C5.44383 15.1356 5.16815 15.2445 4.95366 15.442C4.8686 15.5168 4.79039 15.6597 4.87877 15.7619C5.01494 15.9083 5.22601 15.9456 5.41306 15.9899C6.46137 16.1703 7.52321 16.2723 8.58524 16.3098C9.99429 16.3507 11.4135 16.2894 12.7988 16.0171ZM14.1942 16.2009C13.5543 16.4051 12.8907 16.5174 12.2303 16.6094C11.0902 16.7523 9.93977 16.7965 8.79278 16.7626C8.0951 16.7354 7.39743 16.6877 6.70984 16.5719C6.8698 16.6808 7.06725 16.7148 7.25108 16.7659C8.02374 16.9293 8.81665 16.9599 9.60292 16.9837C10.7566 17.0042 11.9104 16.9599 13.0472 16.7795C13.585 16.6844 14.1262 16.5686 14.6093 16.3167C14.8613 16.1839 15.1166 15.9796 15.1607 15.6836C14.9055 15.9558 14.538 16.0818 14.1942 16.2009Z" fill="#909AA3"/>
</svg>
