<svg width="21" height="20" viewBox="0 0 21 20" fill="none" xmlns="http://www.w3.org/2000/svg">
<rect x="0.539062" width="20" height="20" rx="10" fill="#222426"/>
<g clip-path="url(#clip0_7793_13896)">
<path d="M11.0793 3.00186C10.7896 2.98744 10.5019 3.05713 10.251 3.20253L5.48804 5.95178C5.25565 6.08673 5.06368 6.28152 4.93212 6.51586L7.24037 7.78169C7.32823 7.64065 7.44891 7.52297 7.59212 7.43869L10.4802 5.77036C10.6363 5.68031 10.8133 5.6329 10.9935 5.6329C11.1737 5.6329 11.3508 5.68031 11.5069 5.77036L14.395 7.43869C14.5142 7.50664 14.6186 7.5979 14.7018 7.70703L16.989 6.38578C16.8636 6.20842 16.7012 6.06035 16.513 5.95178L11.7536 3.20253C11.5484 3.08441 11.3181 3.01645 11.0816 3.00419L11.0793 3.00186ZM10.9947 5.86719C10.8555 5.86716 10.7187 5.90377 10.598 5.97336L7.71054 7.63936C7.60346 7.70183 7.5127 7.78879 7.44571 7.89311L8.56571 8.50853C8.61473 8.44357 8.67621 8.38904 8.74654 8.34811L10.6949 7.22344C10.7881 7.16981 10.8938 7.14158 11.0014 7.14158C11.109 7.14158 11.2147 7.16981 11.308 7.22344L13.254 8.34811C13.3056 8.37983 13.3524 8.41894 13.3928 8.46419L13.4033 8.45836L13.4021 8.45719L14.497 7.82719C14.4366 7.75179 14.3629 7.68813 14.2795 7.63936L11.392 5.97103C11.2712 5.90218 11.1343 5.86636 10.9953 5.86719H10.9947ZM17.08 6.53744L14.7934 7.85578C14.8698 8.00198 14.9098 8.16447 14.91 8.32944V11.6632C14.91 12.0289 14.7164 12.369 14.3967 12.5545L11.5092 14.2229C11.394 14.2881 11.2672 14.3305 11.1359 14.3477V16.9867C11.3526 16.9712 11.5633 16.9089 11.7536 16.8041L16.5148 14.0549C16.7432 13.923 16.9329 13.7335 17.0649 13.5051C17.1969 13.2768 17.2665 13.0178 17.2667 12.754V7.25669C17.2655 7.00619 17.2018 6.75995 17.0812 6.54036L17.08 6.53744ZM4.86679 6.67628C4.78478 6.85809 4.73977 7.0544 4.73438 7.25378V12.7546C4.73438 13.2901 5.02079 13.7854 5.48863 14.0549L10.2498 16.8041C10.4678 16.9282 10.7135 16.9956 10.9644 17.0001V14.357C10.7935 14.3525 10.6265 14.3053 10.4785 14.2199L7.59154 12.5551C7.43567 12.4644 7.30637 12.3343 7.21658 12.1778C7.1268 12.0214 7.07969 11.8441 7.07996 11.6638V8.32944C7.07946 8.19427 7.10542 8.06031 7.15637 7.93511L4.86679 6.67628ZM14.591 7.97303L13.4885 8.61003C13.5327 8.69281 13.5574 8.78458 13.5608 8.87836V11.1277C13.5608 11.3482 13.4441 11.5477 13.254 11.6568L11.308 12.7826C11.2541 12.812 11.1961 12.833 11.1359 12.845V14.1109C11.2245 14.0951 11.3132 14.0654 11.3925 14.0193L14.2795 12.3515C14.4002 12.2818 14.5005 12.1814 14.5702 12.0606C14.6398 11.9397 14.6764 11.8027 14.6761 11.6632V8.32944C14.6754 8.20636 14.646 8.08514 14.5904 7.97536L14.591 7.97303ZM7.36521 8.04886C7.33129 8.13852 7.31389 8.23358 7.31387 8.32944V11.6632C7.31365 11.8027 7.3502 11.9397 7.41984 12.0606C7.48948 12.1814 7.58975 12.2818 7.71054 12.3515L10.598 14.0199C10.7112 14.0852 10.8384 14.1167 10.9638 14.1231V12.8549C10.87 12.8518 10.7783 12.8273 10.6955 12.7832L8.74888 11.6585C8.65527 11.6052 8.57734 11.5282 8.52287 11.4352C8.46841 11.3422 8.43933 11.2366 8.43854 11.1289V8.88128C8.43876 8.80515 8.45402 8.72982 8.48346 8.65961L8.46362 8.65203L7.36521 8.04886Z" fill="#909AA3"/>
</g>
<defs>
<clipPath id="clip0_7793_13896">
<rect width="14" height="14" fill="white" transform="translate(4 3)"/>
</clipPath>
</defs>
</svg>
