<svg width="21" height="20" viewBox="0 0 21 20" fill="none" xmlns="http://www.w3.org/2000/svg">
<rect x="0.539062" width="20" height="20" rx="10" fill="#222426"/>
<g clip-path="url(#clip0_7783_13513)">
<path d="M8.62319 7.625V11.375H12.3732V7.625H8.62319ZM11.4357 10.4375H9.56069V8.5625H11.4357V10.4375ZM8.62319 7.625V11.375H12.3732V7.625H8.62319ZM11.4357 10.4375H9.56069V8.5625H11.4357V10.4375ZM8.62319 7.625V11.375H12.3732V7.625H8.62319ZM11.4357 10.4375H9.56069V8.5625H11.4357V10.4375ZM8.62319 7.625V11.375H12.3732V7.625H8.62319ZM11.4357 10.4375H9.56069V8.5625H11.4357V10.4375ZM17.2482 7.84375L15.8107 6.65625V4.34375C15.8097 4.28383 15.7915 4.22545 15.7582 4.17559C15.725 4.12572 15.6781 4.08646 15.6232 4.0625L12.5294 2.65625H12.4044L12.2169 2.71875L10.4982 3.84375L8.77944 2.6875L8.59194 2.625H8.46694L5.37319 4.0625C5.31826 4.08646 5.27137 4.12572 5.23813 4.17559C5.20489 4.22545 5.18668 4.28383 5.18569 4.34375V6.65625L3.74819 7.84375C3.70482 7.86823 3.66976 7.90511 3.64749 7.94965C3.62522 7.99419 3.61676 8.04437 3.62319 8.09375V10.9062C3.62043 10.9552 3.63051 11.004 3.65243 11.0479C3.67436 11.0917 3.70737 11.1291 3.74819 11.1562L5.18569 12.3437V14.6562C5.18668 14.7162 5.20489 14.7745 5.23813 14.8244C5.27137 14.8743 5.31826 14.9135 5.37319 14.9375L8.46694 16.3437H8.59194L8.77944 16.2812L10.4982 15.1562L12.2169 16.3125L12.4044 16.375H12.5294L15.6232 14.9687C15.6781 14.9448 15.725 14.9055 15.7582 14.8557C15.7915 14.8058 15.8097 14.7474 15.8107 14.6875V12.3437L17.2482 11.1562C17.289 11.1291 17.322 11.0917 17.3439 11.0479C17.3659 11.004 17.376 10.9552 17.3732 10.9062V8.09375C17.3796 8.04437 17.3712 7.99419 17.3489 7.94965C17.3266 7.90511 17.2916 7.86823 17.2482 7.84375ZM12.5294 4.1875C12.6221 4.1875 12.7128 4.21499 12.7899 4.2665C12.8669 4.31801 12.927 4.39121 12.9625 4.47687C12.998 4.56252 13.0073 4.65677 12.9892 4.7477C12.9711 4.83863 12.9264 4.92215 12.8609 4.98771C12.7953 5.05326 12.7118 5.09791 12.6209 5.11599C12.53 5.13408 12.4357 5.1248 12.3501 5.08932C12.2644 5.05384 12.1912 4.99376 12.1397 4.91667C12.0882 4.83959 12.0607 4.74896 12.0607 4.65625C12.0607 4.53193 12.1101 4.4127 12.198 4.32479C12.2859 4.23689 12.4051 4.1875 12.5294 4.1875ZM8.46694 4.1875C8.55965 4.1875 8.65028 4.21499 8.72736 4.2665C8.80445 4.31801 8.86453 4.39121 8.90001 4.47687C8.93549 4.56252 8.94477 4.65677 8.92668 4.7477C8.90859 4.83863 8.86395 4.92215 8.79839 4.98771C8.73284 5.05326 8.64932 5.09791 8.55839 5.11599C8.46746 5.13408 8.37321 5.1248 8.28756 5.08932C8.2019 5.05384 8.12869 4.99376 8.07719 4.91667C8.02568 4.83959 7.99819 4.74896 7.99819 4.65625C7.99819 4.53193 8.04757 4.4127 8.13548 4.32479C8.22339 4.23689 8.34262 4.1875 8.46694 4.1875ZM8.46694 14.8125C8.37423 14.8125 8.2836 14.785 8.20651 14.7335C8.12943 14.682 8.06935 14.6088 8.03387 14.5231C7.99839 14.4375 7.98911 14.3432 8.0072 14.2523C8.02528 14.1614 8.06993 14.0778 8.13548 14.0123C8.20104 13.9467 8.28456 13.9021 8.37549 13.884C8.46642 13.8659 8.56067 13.8752 8.64632 13.9107C8.73197 13.9462 8.80518 14.0062 8.85669 14.0833C8.9082 14.1604 8.93569 14.251 8.93569 14.3437C8.93569 14.4681 8.8863 14.5873 8.79839 14.6752C8.71049 14.7631 8.59126 14.8125 8.46694 14.8125ZM12.5294 14.8125C12.4367 14.8125 12.3461 14.785 12.269 14.7335C12.1919 14.682 12.1318 14.6088 12.0964 14.5231C12.0609 14.4375 12.0516 14.3432 12.0697 14.2523C12.0878 14.1614 12.1324 14.0778 12.198 14.0123C12.2635 13.9467 12.3471 13.9021 12.438 13.884C12.5289 13.8659 12.6232 13.8752 12.7088 13.9107C12.7945 13.9462 12.8677 14.0062 12.9192 14.0833C12.9707 14.1604 12.9982 14.251 12.9982 14.3437C12.9982 14.4681 12.9488 14.5873 12.8609 14.6752C12.773 14.7631 12.6538 14.8125 12.5294 14.8125ZM13.7794 9.8125C13.9038 9.8125 14.023 9.86189 14.1109 9.94979C14.1988 10.0377 14.2482 10.1569 14.2482 10.2812C14.2482 10.4056 14.1988 10.5248 14.1109 10.6127C14.023 10.7006 13.9038 10.75 13.7794 10.75H13.3107V11.6875C13.3107 11.8533 13.2448 12.0122 13.1276 12.1294C13.0104 12.2467 12.8514 12.3125 12.6857 12.3125H11.7482V12.7812C11.7482 12.9056 11.6988 13.0248 11.6109 13.1127C11.523 13.2006 11.4038 13.25 11.2794 13.25C11.1551 13.25 11.0359 13.2006 10.948 13.1127C10.8601 13.0248 10.8107 12.9056 10.8107 12.7812V12.3125H10.1857V12.7812C10.1857 12.9056 10.1363 13.0248 10.0484 13.1127C9.96049 13.2006 9.84126 13.25 9.71694 13.25C9.59262 13.25 9.47339 13.2006 9.38548 13.1127C9.29757 13.0248 9.24819 12.9056 9.24819 12.7812V12.3125H8.31069C8.14493 12.3125 7.98596 12.2467 7.86875 12.1294C7.75154 12.0122 7.68569 11.8533 7.68569 11.6875V10.75H7.21694C7.09262 10.75 6.97339 10.7006 6.88548 10.6127C6.79757 10.5248 6.74819 10.4056 6.74819 10.2812C6.74819 10.1569 6.79757 10.0377 6.88548 9.94979C6.97339 9.86189 7.09262 9.8125 7.21694 9.8125H7.68569V9.1875H7.21694C7.09262 9.1875 6.97339 9.13811 6.88548 9.05021C6.79757 8.9623 6.74819 8.84307 6.74819 8.71875C6.74819 8.59443 6.79757 8.4752 6.88548 8.38729C6.97339 8.29939 7.09262 8.25 7.21694 8.25H7.68569V7.3125C7.68569 7.14674 7.75154 6.98777 7.86875 6.87056C7.98596 6.75335 8.14493 6.6875 8.31069 6.6875H9.24819V6.21875C9.24819 6.09443 9.29757 5.9752 9.38548 5.88729C9.47339 5.79939 9.59262 5.75 9.71694 5.75C9.84126 5.75 9.96049 5.79939 10.0484 5.88729C10.1363 5.9752 10.1857 6.09443 10.1857 6.21875V6.6875H10.8107V6.21875C10.8107 6.09443 10.8601 5.9752 10.948 5.88729C11.0359 5.79939 11.1551 5.75 11.2794 5.75C11.4038 5.75 11.523 5.79939 11.6109 5.88729C11.6988 5.9752 11.7482 6.09443 11.7482 6.21875V6.6875H12.6857C12.8514 6.6875 13.0104 6.75335 13.1276 6.87056C13.2448 6.98777 13.3107 7.14674 13.3107 7.3125V8.25H13.7794C13.9038 8.25 14.023 8.29939 14.1109 8.38729C14.1988 8.4752 14.2482 8.59443 14.2482 8.71875C14.2482 8.84307 14.1988 8.9623 14.1109 9.05021C14.023 9.13811 13.9038 9.1875 13.7794 9.1875H13.3107V9.8125H13.7794ZM8.62319 11.375H12.3732V7.625H8.62319V11.375ZM9.56069 8.5625H11.4357V10.4375H9.56069V8.5625ZM8.62319 7.625V11.375H12.3732V7.625H8.62319ZM11.4357 10.4375H9.56069V8.5625H11.4357V10.4375ZM8.62319 7.625V11.375H12.3732V7.625H8.62319ZM11.4357 10.4375H9.56069V8.5625H11.4357V10.4375Z" fill="#909AA3"/>
</g>
<defs>
<clipPath id="clip0_7783_13513">
<rect width="15" height="15" fill="white" transform="translate(3 2)"/>
</clipPath>
</defs>
</svg>
