<svg width="21" height="20" viewBox="0 0 21 20" fill="none" xmlns="http://www.w3.org/2000/svg">
<rect x="0.308594" width="20" height="20" rx="10" fill="#222426"/>
<path d="M3.64167 6.53125C3.2835 6.53125 3 6.81125 3 7.16125C2.99999 7.24497 3.01666 7.32786 3.04905 7.40507C3.08143 7.48227 3.12889 7.55225 3.18863 7.6109C3.24837 7.66956 3.3192 7.71572 3.39699 7.74668C3.47478 7.77765 3.55796 7.7928 3.64167 7.79125C4.00333 7.79125 4.28917 7.51125 4.28917 7.16125C4.28917 6.81125 4.00333 6.53125 3.64167 6.53125ZM8.08083 6.54292C6.12083 6.54292 4.89583 7.87875 4.89583 10.0021C4.89583 12.1429 6.12083 13.4729 8.08083 13.4729C10.0292 13.4729 11.26 12.1429 11.26 10.0021C11.26 7.87875 10.0292 6.54292 8.08083 6.54292ZM14.4042 6.54292C12.9458 6.54292 11.9075 7.34792 11.9075 8.54375C11.9075 9.49458 12.4967 10.0896 13.7333 10.3754L14.6025 10.5854C15.4483 10.7779 15.7925 11.0579 15.7925 11.5421C15.7925 12.1021 15.2267 12.4988 14.4217 12.4988C13.5992 12.4988 12.9808 12.0962 12.9167 11.4779H11.75C11.7967 12.7146 12.8117 13.4729 14.3517 13.4729C15.9792 13.4729 17 12.6737 17 11.4021C17 10.4046 16.4167 9.83875 15.0633 9.52958L14.2875 9.35458C13.465 9.15625 13.1267 8.89375 13.1267 8.45042C13.1267 7.89042 13.64 7.51708 14.3983 7.51708C15.1625 7.51708 15.6875 7.89625 15.7458 8.52042H16.8892C16.86 7.34208 15.8858 6.54292 14.4042 6.54292ZM8.08083 7.56375C9.27083 7.56375 10.035 8.51458 10.035 10.0021C10.035 11.5012 9.27083 12.4521 8.08083 12.4521C6.87917 12.4521 6.12083 11.5012 6.12083 10.0021C6.12083 8.51458 6.87917 7.56375 8.08083 7.56375ZM3.06475 8.43292V13.3621H4.225V8.43292H3.06417H3.06475Z" fill="#909AA3"/>
</svg>
