<svg width="21" height="20" viewBox="0 0 21 20" fill="none" xmlns="http://www.w3.org/2000/svg">
<rect x="0.539062" width="20" height="20" rx="10" fill="#222426"/>
<path d="M10.9216 13.1413C10.9216 13.1413 10.9216 8.60831 11.0721 8.60875C11.1885 8.60875 11.3398 14.4559 11.3398 14.4559C11.1316 14.4314 10.9216 13.4939 10.9216 13.1413ZM13.8388 8.66125C13.4368 6.90425 12.5561 5.39356 11.3416 4.22763L11.3385 4.225C11.1907 3.99925 11.0555 3.74025 10.947 3.46725L10.9365 3.4375C10.9369 3.44625 10.9369 3.45675 10.9369 3.46725C10.9369 3.71444 10.8262 3.93538 10.6517 4.08369L10.6503 4.08456C9.08672 5.41194 8.09184 7.368 8.05903 9.55681V9.5625C8.05859 9.58963 8.05859 9.62156 8.05859 9.6535C8.05859 11.8222 9.10203 13.7472 10.7142 14.9538L10.7313 14.9661L10.7693 14.9936C10.8396 15.514 10.8997 16.0355 10.9496 16.5581H11.2125C11.2852 15.9058 11.3832 15.3349 11.5113 14.7749L11.4912 14.8794C11.6645 14.7591 11.8158 14.6344 11.9572 14.4993L11.9558 14.5006C13.1813 13.3644 13.946 11.7456 13.946 9.94881C13.946 9.92213 13.946 9.89588 13.9456 9.86919V9.87313C13.9443 9.44394 13.9053 9.02438 13.8314 8.61706L13.838 8.66038L13.8388 8.66125Z" fill="#909AA3"/>
</svg>
