<svg width="20" height="20" viewBox="0 0 20 20" fill="none" xmlns="http://www.w3.org/2000/svg">
<rect width="20" height="20" rx="10" fill="#222426"/>
<path d="M6.76104 3.8252H6.5705V3H6.15147V3.8252H5.96094V4.89477H6.76103L6.76104 3.8252Z" fill="#909AA3"/>
<path d="M8.58122 3.8252H8.39082V3H7.97166V3.8252H7.78125V4.89477H8.58121L8.58122 3.8252Z" fill="#909AA3"/>
<path d="M10.3976 3.8252H10.2072V3H9.78806V3.8252H9.59766V4.89477H10.3976L10.3976 3.8252Z" fill="#909AA3"/>
<path d="M12.2181 3.8252H12.0275V3H11.6085V3.8252H11.418V4.89477H12.2181L12.2181 3.8252Z" fill="#909AA3"/>
<path d="M14.0384 3.8252H13.8478V3H13.4288V3.8252H13.2383V4.89477H14.0384L14.0384 3.8252Z" fill="#909AA3"/>
<path d="M5.96094 16.1713H6.15147V16.9965H6.5705V16.1713H6.76104V15.1016H5.96094L5.96094 16.1713Z" fill="#909AA3"/>
<path d="M7.78125 16.1713H7.97166V16.9965H8.39082V16.1713H8.58122V15.1016H7.78126L7.78125 16.1713Z" fill="#909AA3"/>
<path d="M9.59766 16.1713H9.78806V16.9965H10.2072V16.1713H10.3976V15.1016H9.59767L9.59766 16.1713Z" fill="#909AA3"/>
<path d="M11.418 16.1713H11.6085V16.9965H12.0275V16.1713H12.2181V15.1016H11.418L11.418 16.1713Z" fill="#909AA3"/>
<path d="M13.2383 16.1713H13.4288V16.9965H13.8478V16.1713H14.0384V15.1016H13.2383L13.2383 16.1713Z" fill="#909AA3"/>
<path d="M3.82545 13.4248H3V13.8437H3.82545V14.0342H4.89534V13.2344H3.82545V13.4248Z" fill="#909AA3"/>
<path d="M3.82545 11.6045H3V12.0234H3.82545V12.2139H4.89534V11.4141H3.82545V11.6045Z" fill="#909AA3"/>
<path d="M3.82545 9.7919H3V10.2109H3.82545V10.4013H4.89534V9.60156H3.82545V9.7919Z" fill="#909AA3"/>
<path d="M3.82545 7.97159H3V8.39062H3.82545V8.58097H4.89534V7.78125H3.82545V7.97159Z" fill="#909AA3"/>
<path d="M3.82545 6.1436H3V6.5625H3.82545V6.75298H4.89534V5.95312H3.82545V6.1436Z" fill="#909AA3"/>
<path d="M16.1755 13.2344H15.1055V14.0342H16.1755V13.8437H17.0009V13.4248H16.1755V13.2344Z" fill="#909AA3"/>
<path d="M16.1755 11.4141H15.1055V12.2139H16.1755V12.0234H17.0009V11.6045H16.1755V11.4141Z" fill="#909AA3"/>
<path d="M16.1755 9.60156H15.1055V10.4013H16.1755V10.2109H17.0009V9.7919H16.1755V9.60156Z" fill="#909AA3"/>
<path d="M16.1755 7.78125H15.1055V8.58097H16.1755V8.39062H17.0009V7.97159H16.1755V7.78125Z" fill="#909AA3"/>
<path d="M16.1755 6.1436V5.95312H15.1055V6.75298H16.1755V6.5625H17.0009V6.1436L16.1755 6.1436Z" fill="#909AA3"/>
<path d="M14.3428 5.19531H5.65644C5.40352 5.19531 5.19922 5.39952 5.19922 5.6526V14.3402C5.19922 14.5932 5.4034 14.7975 5.65644 14.7975H14.3428C14.5957 14.7975 14.8 14.5933 14.8 14.3402V5.6526C14.7999 5.39952 14.5957 5.19531 14.3428 5.19531ZM6.61368 10.5725C6.37441 10.5725 6.17931 10.3683 6.17931 10.1184V8.07756C6.17931 7.82915 6.3744 7.62493 6.61368 7.62493H10.7494C10.9902 7.62493 11.1852 7.82914 11.1852 8.07756V10.1184C11.1852 10.3685 10.9901 10.5725 10.7494 10.5725H7.81117L6.61338 11.3666L6.83134 10.5725H6.61368ZM13.8201 11.1212C13.8201 11.3712 13.625 11.5738 13.3856 11.5738H13.1676L13.3856 12.3679L12.1879 11.5738H9.24996C9.00912 11.5738 8.81416 11.3712 8.81416 11.1212V10.8773H10.7495C11.1579 10.8773 11.4901 10.5374 11.4901 10.1183V8.62619H13.3858C13.6251 8.62619 13.8203 8.8304 13.8203 9.08035L13.8201 11.1212Z" fill="#909AA3"/>
</svg>
