<svg width="21" height="20" viewBox="0 0 21 20" fill="none" xmlns="http://www.w3.org/2000/svg">
<rect x="0.539062" width="20" height="20" rx="10" fill="#222426"/>
<path d="M9.99599 3.47037C10.3266 3.28114 10.7572 3.28028 11.0875 3.47037C12.7493 4.40938 14.4117 5.34692 16.0732 6.2865C16.3857 6.46254 16.5948 6.81033 16.5916 7.17043V12.8199C16.5939 13.1949 16.3642 13.551 16.0345 13.723C14.3781 14.6569 12.7227 15.5918 11.0666 16.5257C10.7291 16.7186 10.2899 16.7038 9.96298 16.495C9.46641 16.2071 8.96898 15.9207 8.47236 15.6331C8.37088 15.5726 8.25649 15.5245 8.18483 15.4261C8.24818 15.3407 8.36143 15.33 8.45346 15.2928C8.66074 15.2269 8.85112 15.1211 9.04154 15.0184C9.0897 14.9854 9.14849 14.9981 9.19464 15.0276C9.61927 15.271 10.0402 15.5216 10.4662 15.7627C10.5571 15.8152 10.6491 15.7455 10.7268 15.7022C12.3522 14.7836 13.9796 13.8684 15.6047 12.9495C15.6649 12.9205 15.6982 12.8566 15.6933 12.7906C15.6944 10.927 15.6936 9.06303 15.6939 7.19939C15.7008 7.12456 15.6575 7.05575 15.5898 7.02512C13.9392 6.09556 12.2894 5.16457 10.6391 4.23477C10.6105 4.21512 10.5766 4.20457 10.5419 4.20452C10.5072 4.20447 10.4733 4.21491 10.4447 4.23449C8.79437 5.16457 7.14491 6.09641 5.49459 7.02592C5.42716 7.0566 5.3819 7.12427 5.38993 7.19939C5.39021 9.06303 5.38993 10.927 5.38993 12.7909C5.38706 12.8231 5.39413 12.8554 5.41018 12.8834C5.42623 12.9115 5.45048 12.9339 5.47968 12.9478C5.92007 13.1975 6.36104 13.4455 6.80172 13.6944C7.04998 13.828 7.3548 13.9074 7.62833 13.805C7.8697 13.7184 8.0389 13.4721 8.03429 13.2158C8.03657 11.3631 8.03315 9.51002 8.036 7.65755C8.02997 7.5753 8.10799 7.50735 8.18796 7.51509C8.39957 7.51366 8.61145 7.51224 8.82306 7.51566C8.91138 7.51366 8.97217 7.60223 8.96124 7.68509C8.96039 9.54958 8.96352 11.4141 8.95982 13.2786C8.96039 13.7755 8.75624 14.3162 8.29661 14.5593C7.73038 14.8527 7.03051 14.7905 6.47111 14.5092C5.98684 14.2675 5.52469 13.9822 5.04902 13.7233C4.71846 13.5522 4.4899 13.1946 4.49223 12.8199V7.17043C4.48876 6.80288 4.70611 6.44877 5.02836 6.2753C6.68442 5.3407 8.34021 4.40539 9.99599 3.47037Z" fill="#909AA3"/>
<path d="M11.439 7.3856C12.1613 7.33911 12.9346 7.35806 13.5845 7.71388C14.0877 7.98655 14.3667 8.55882 14.3756 9.11789C14.3615 9.1933 14.2827 9.23489 14.2107 9.22972C14.0012 9.22943 13.7916 9.23257 13.582 9.22829C13.4931 9.23171 13.4414 9.14975 13.4303 9.07116C13.3701 8.80366 13.2242 8.53873 12.9724 8.40971C12.5859 8.2162 12.1378 8.22593 11.7163 8.22997C11.4086 8.24631 11.0778 8.27295 10.8171 8.45387C10.617 8.59092 10.5563 8.86758 10.6277 9.09039C10.695 9.25037 10.8797 9.30199 11.0308 9.34958C11.9012 9.57723 12.8236 9.55458 13.6774 9.85417C14.0309 9.97631 14.3767 10.2137 14.4977 10.5839C14.656 11.0799 14.5866 11.6728 14.2337 12.0711C13.9475 12.3988 13.5307 12.5771 13.1149 12.674C12.5618 12.7973 11.9878 12.8005 11.4262 12.7457C10.898 12.6855 10.3484 12.5467 9.94068 12.1869C9.59203 11.8842 9.42174 11.4125 9.43865 10.9572C9.44268 10.8803 9.51923 10.8267 9.59288 10.833C9.80392 10.8313 10.0149 10.8307 10.226 10.8333C10.3103 10.8273 10.3728 10.9001 10.3771 10.9796C10.416 11.2344 10.5118 11.5019 10.734 11.653C11.163 11.9297 11.7011 11.9108 12.1922 11.9185C12.5991 11.9005 13.0558 11.895 13.3879 11.6261C13.563 11.4727 13.6149 11.2161 13.5676 10.9953C13.5163 10.809 13.3213 10.7221 13.1539 10.6653C12.2946 10.3935 11.3619 10.4921 10.511 10.1847C10.1655 10.0626 9.83141 9.83181 9.69869 9.47689C9.51349 8.97457 9.59834 8.35325 9.98826 7.96846C10.3684 7.58571 10.9173 7.43831 11.439 7.38555V7.3856Z" fill="#909AA3"/>
</svg>
