<svg width="20" height="20" viewBox="0 0 20 20" fill="none" xmlns="http://www.w3.org/2000/svg">
<rect width="20" height="20" rx="10" fill="#222426"/>
<g clip-path="url(#clip0_7781_13446)">
<path fill-rule="evenodd" clip-rule="evenodd" d="M11.372 14.229C11.131 14.229 10.936 14.033 10.936 13.7908C10.936 13.5485 11.131 13.353 11.372 13.353C11.613 13.353 11.808 13.5485 11.808 13.7908C11.808 14.033 11.613 14.229 11.372 14.229ZM10.036 15C12.575 15 12.4165 13.8933 12.4165 13.8933L12.4135 12.7468H9.991V12.4026H13.3755C13.3755 12.4026 15 12.5881 15 10.0132C15 7.43829 13.5825 7.52905 13.5825 7.52905H12.736V8.72437C12.736 8.72437 12.7815 10.1492 11.341 10.1492H8.938C8.938 10.1492 7.588 10.1277 7.588 11.4612V13.6655C7.588 13.6655 7.383 15 10.036 15ZM8.62849 5.771C8.86949 5.771 9.064 5.96697 9.064 6.20923C9.064 6.45149 8.86949 6.64697 8.62849 6.64697C8.38749 6.64697 8.1925 6.45149 8.1925 6.20923C8.1925 5.96697 8.38749 5.771 8.62849 5.771ZM9.964 5C7.4255 5 7.584 6.10669 7.584 6.10669L7.58701 7.25317H10.0095V7.59741H6.6245C6.6245 7.59741 5 7.41193 5 9.98682C5 12.5617 6.418 12.4709 6.418 12.4709H7.26401V11.2756C7.26401 11.2756 7.2185 9.85083 8.6595 9.85083H11.062C11.062 9.85083 12.412 9.87225 12.412 8.53882V6.33447C12.412 6.33447 12.617 5 9.964 5Z" fill="#909AA3"/>
</g>
<defs>
<clipPath id="clip0_7781_13446">
<rect width="10" height="10" fill="white" transform="translate(5 5)"/>
</clipPath>
</defs>
</svg>
