<svg width="20" height="20" viewBox="0 0 20 20" fill="none" xmlns="http://www.w3.org/2000/svg">
<rect width="20" height="20" rx="10" fill="#222426"/>
<path d="M9.89061 11C10.3048 11 10.6406 10.6642 10.6406 10.25C10.6406 9.83578 10.3048 9.5 9.89061 9.5C9.47641 9.5 9.14062 9.83578 9.14062 10.25C9.14062 10.6642 9.47641 11 9.89061 11Z" fill="#909AA3"/>
<path d="M9.96577 12.1631C13.1009 12.1631 15.6425 11.1927 15.6425 9.9956C15.6425 8.79853 13.1009 7.82812 9.96577 7.82812C6.83061 7.82812 4.28906 8.79853 4.28906 9.9956C4.28906 11.1927 6.83061 12.1631 9.96577 12.1631Z" stroke="#909AA3" stroke-width="0.6"/>
<path d="M8.092 11.0836C9.65958 13.7988 11.7707 15.5146 12.8074 14.9161C13.8441 14.3175 13.4137 11.6313 11.8462 8.91617C10.2786 6.20105 8.16741 4.4852 7.13073 5.08373C6.09404 5.68227 6.52442 8.36852 8.092 11.0836Z" stroke="#909AA3" stroke-width="0.6"/>
<path d="M8.08717 8.92058C6.51959 11.6357 6.08921 14.322 7.1259 14.9205C8.16258 15.519 10.2738 13.8032 11.8413 11.088C13.4089 8.37292 13.8393 5.68667 12.8026 5.08814C11.7659 4.48961 9.65475 6.20545 8.08717 8.92058Z" stroke="#909AA3" stroke-width="0.6"/>
</svg>
