<svg width="21" height="20" viewBox="0 0 21 20" fill="none" xmlns="http://www.w3.org/2000/svg">
<rect x="0.539062" width="20" height="20" rx="10" fill="#222426"/>
<g clip-path="url(#clip0_7796_13943)">
<path d="M9.0814 3.10257C8.6971 3.08949 8.32047 3.20276 8.03615 3.4982C7.86482 3.67466 7.72127 3.8682 7.56148 4.04465C7.37904 4.24332 7.15816 4.40909 6.90438 4.50266C6.6835 4.58554 6.4626 4.56888 6.23659 4.60776C6.00459 4.64621 5.76704 4.7291 5.57949 4.87821C5.37526 5.04398 5.29238 5.26444 5.27059 5.51866C5.24837 5.71733 5.25393 5.92155 5.24282 6.12022C5.21505 6.70555 5.02748 6.87089 4.60793 7.19689C4.43147 7.32933 4.28236 7.50578 4.17171 7.69378C3.8406 8.27868 4.3708 8.88575 4.39815 9.4767C4.4037 9.59804 4.39259 9.71939 4.34859 9.83558C4.30415 9.96248 4.21615 10.0454 4.14436 10.15C4.04481 10.288 3.97859 10.4538 4.00636 10.6247C4.03371 10.796 4.12215 10.9562 4.20503 11.1053C4.36525 11.3702 4.56391 11.6074 4.7737 11.8338C4.78201 11.8338 4.79007 11.8405 4.79826 11.8483C4.93275 12.2565 4.99949 12.4023 4.99949 12.4023C4.99736 12.3953 4.99214 12.3718 4.98582 12.345C5.1664 12.7824 5.39503 13.2072 5.66856 13.6167C7.10367 15.7585 9.43347 16.4981 9.43347 16.4981C12.8835 17.6683 15.2406 15.9461 15.2406 15.9461C17.4102 14.4554 17.8464 12.7332 17.8464 12.7332C16.0964 14.1026 15.3402 13.9751 15.3402 13.9751C16.6098 13.4231 17.1506 12.4683 17.1506 12.4683C18.3376 10.8507 17.9346 9.14515 17.9346 9.14515C17.1784 10.79 16.4879 11.243 16.4879 11.243C18.3486 8.41069 16.499 6.69963 16.499 6.69963C17.2553 8.3116 16.2508 10.2765 16.2508 10.2765C15.4061 12.0543 14.2081 12.6892 14.2081 12.6892C15.5441 12.9375 16.5268 12.0377 16.5268 12.0377C14.611 14.1077 12.5355 14.0086 12.5355 14.0086C13.4079 14.9857 14.7162 14.9028 14.7162 14.9028C13.005 15.3057 11.3986 14.7371 10.0792 13.6386C9.83057 13.4344 9.59344 13.2135 9.37256 12.9763C9.37256 12.9763 9.17389 12.7666 9.13501 12.7114L9.12946 12.7059C9.10211 13.727 10.1672 14.6764 10.1672 14.6764C8.83122 14.1244 8.21861 12.9264 8.21861 12.9264C8.21861 12.9264 7.31883 11.392 7.97039 9.64241C8.62151 7.89241 10.5924 7.5166 10.5924 7.5166C10.6543 7.54661 10.7129 7.57059 10.774 7.59906C10.8418 7.63051 10.9088 7.66111 10.9755 7.6907C12.4302 8.33881 13.6013 8.55438 13.6013 8.55438C16.5105 9.04016 16.3451 7.61615 16.3451 7.61615C16.3591 6.99088 15.8852 6.34817 15.4171 5.86593C15.3183 5.76378 15.22 5.66927 15.1262 5.58331C15.1176 5.57551 15.109 5.56682 15.1005 5.55917C14.995 5.46339 14.8969 5.38026 14.8117 5.31052C14.8106 5.30957 14.811 5.30996 14.8098 5.30902C14.6347 5.16576 14.5169 5.08236 14.5169 5.08236C14.3433 4.95383 14.1702 4.8388 13.998 4.7316C13.9669 4.71214 13.9356 4.69077 13.9045 4.672C13.8878 4.66196 13.8714 4.65322 13.8547 4.64337C13.2555 4.28783 12.6733 4.05598 12.125 3.91406C12.1033 3.90835 12.082 3.90411 12.0603 3.89868C11.9963 3.88285 11.9322 3.86665 11.8691 3.85318C11.3654 3.74333 10.8911 3.7044 10.4592 3.70855C10.4411 3.69109 10.2824 3.53813 10.1725 3.46502C9.85784 3.25525 9.46583 3.11579 9.08153 3.10271L9.0814 3.10257ZM12.6455 5.92685C12.8108 5.92685 12.9433 6.05929 12.9433 6.22507C12.9433 6.2442 12.9409 6.26273 12.9375 6.28083C12.9094 6.41627 12.7903 6.5171 12.6461 6.5171C12.4804 6.5171 12.3479 6.38466 12.3479 6.21931C12.3479 6.20057 12.35 6.18237 12.3533 6.16462C12.3809 6.02822 12.5004 5.92685 12.6455 5.92685Z" fill="#909AA3"/>
</g>
<defs>
<clipPath id="clip0_7796_13943">
<rect width="14" height="14" fill="white" transform="translate(4 3)"/>
</clipPath>
</defs>
</svg>
