<svg width="20" height="20" viewBox="0 0 20 20" fill="none" xmlns="http://www.w3.org/2000/svg">
<rect width="20" height="20" rx="10" fill="#222426"/>
<g clip-path="url(#clip0_7797_13971)">
<path d="M7.37967 3C7.21225 3 7.04542 3 6.878 3.00117C6.73742 3.00233 6.59625 3.00292 6.45567 3.007C6.37867 3.00875 6.30225 3.01225 6.22525 3.01575C5.9943 3.02473 5.76418 3.0487 5.53633 3.0875C5.23268 3.14119 4.93836 3.23845 4.6625 3.37625C4.10874 3.65794 3.65845 4.10782 3.37625 4.66133C3.23333 4.94133 3.14292 5.22833 3.0875 5.53633C3.03325 5.83967 3.01633 6.14883 3.00817 6.45567C3.00439 6.59642 3.00205 6.7372 3.00117 6.878C3 7.04542 3 7.21225 3 7.37967V12.6203C3 12.7878 3 12.9557 3.00117 13.1232C3.00233 13.2632 3.00408 13.4038 3.00817 13.5443C3.01633 13.8512 3.03325 14.1609 3.0875 14.4637C3.14292 14.7717 3.23333 15.0587 3.37625 15.3387C3.65812 15.8924 4.1085 16.3424 4.6625 16.6237C4.9425 16.7661 5.22833 16.8571 5.53633 16.9125C5.83967 16.9668 6.14883 16.9848 6.45567 16.993C6.59625 16.9971 6.73742 16.9982 6.878 16.9988C7.04542 17 7.21225 17 7.37967 17H12.6203C12.7878 17 12.9546 17 13.122 16.9988C13.2626 16.9982 13.4038 16.9971 13.5443 16.993C13.8528 16.9893 14.1605 16.9624 14.4648 16.9125C14.7688 16.8602 15.0634 16.7629 15.3387 16.6237C15.8921 16.342 16.342 15.8921 16.6237 15.3387C16.7667 15.0587 16.8571 14.7717 16.9125 14.4637C16.9668 14.1603 16.9848 13.8512 16.993 13.5443C16.9971 13.4038 16.9982 13.2637 16.9988 13.1232C17 12.9557 17 12.7878 17 12.6203V7.37967C17 7.21225 17 7.04542 16.9988 6.878C16.9984 6.73721 16.9965 6.59642 16.993 6.45567C16.9893 6.14763 16.9624 5.84032 16.9125 5.53633C16.8603 5.23194 16.7629 4.93703 16.6237 4.66133C16.3419 4.10798 15.892 3.65811 15.3387 3.37625C15.0634 3.23711 14.7688 3.13979 14.4648 3.0875C14.1605 3.03751 13.8528 3.0106 13.5443 3.007C13.404 3.00361 13.2636 3.00166 13.1232 3.00117C12.9557 3 12.7878 3 12.6203 3H7.37967ZM10.9001 4.98917C13.2999 6.43 14.718 9.167 14.137 11.4823C14.123 11.5365 14.1078 11.5878 14.0927 11.6409L14.0938 11.6415C15.2967 13.122 14.9688 14.7087 14.8148 14.4094C14.1895 13.1926 13.0263 13.4948 12.4302 13.801C12.3763 13.833 12.3216 13.8637 12.2662 13.8932L12.2546 13.9002L12.2534 13.9013C11.0197 14.5564 9.36183 14.6042 7.69642 13.8885C6.34036 13.3009 5.19356 12.3172 4.40642 11.0663C4.785 11.3463 5.19392 11.5925 5.62967 11.7967C7.39075 12.6215 9.15942 12.5614 10.4112 11.7955C8.62975 10.4258 7.14225 8.64083 6.00183 7.19475C5.78504 6.94183 5.58899 6.67184 5.41558 6.38742C6.78058 7.63692 8.93775 9.20492 9.71183 9.64008C8.06917 7.90467 6.62133 5.76675 6.689 5.835C9.27667 8.4425 11.6637 9.916 11.6637 9.916C11.7535 9.96558 11.8212 10.0058 11.8737 10.0402C11.9232 9.91483 11.967 9.78533 12.0043 9.65058C12.4173 8.14092 11.9518 6.41483 10.9001 4.98917Z" fill="#909AA3"/>
</g>
<defs>
<clipPath id="clip0_7797_13971">
<rect width="14" height="14" fill="white" transform="translate(3 3)"/>
</clipPath>
</defs>
</svg>
