<svg width="21" height="20" viewBox="0 0 21 20" fill="none" xmlns="http://www.w3.org/2000/svg">
<rect x="0.539062" width="20" height="20" rx="10" fill="#222426"/>
<path d="M11 5.79688C9.13333 5.79688 7.96667 6.73021 7.5 8.59687C8.2 7.66354 9.01667 7.31354 9.95 7.54688C10.4826 7.67987 10.8629 8.06604 11.2847 8.49421C11.9712 9.19071 12.7652 9.99687 14.5 9.99687C16.3667 9.99687 17.5333 9.06354 18 7.19687C17.3 8.13021 16.4833 8.48021 15.55 8.24687C15.0174 8.11387 14.6371 7.72771 14.2153 7.29954C13.5293 6.60304 12.7354 5.79688 11 5.79688ZM7.5 9.99687C5.63333 9.99687 4.46667 10.9302 4 12.7969C4.7 11.8635 5.51667 11.5135 6.45 11.7469C6.98258 11.8799 7.36292 12.266 7.78467 12.6942C8.47125 13.3907 9.26517 14.1969 11 14.1969C12.8667 14.1969 14.0333 13.2635 14.5 11.3969C13.8 12.3302 12.9833 12.6802 12.05 12.4469C11.5174 12.3139 11.1371 11.9277 10.7153 11.4995C10.0293 10.803 9.23542 9.99687 7.5 9.99687Z" fill="#909AA3"/>
</svg>
