<svg width="21" height="20" viewBox="0 0 21 20" fill="none" xmlns="http://www.w3.org/2000/svg">
<rect x="0.539062" width="20" height="20" rx="10" fill="#222426"/>
<path d="M5.92112 12.4971L4.98019 13.438L6.93816 15.396L7.87908 14.4551L7.8792 14.4552C8.32393 14.7191 8.80378 14.9186 9.30443 15.0479V16.3763H10.4575V14.3006C8.8097 14.3006 7.28702 13.4214 6.4629 11.9943C5.63878 10.5673 5.63893 8.8089 6.4629 7.38185C7.28688 5.95477 8.80964 5.07563 10.4575 5.07563V3H9.30443V4.32832C8.80375 4.45764 8.3239 4.65724 7.8792 4.92111L6.93827 3.98007L4.98019 5.93815L5.92111 6.87908C5.65721 7.32381 5.45775 7.80366 5.32844 8.30432H4V11.0718H5.32844C5.45776 11.5725 5.65724 12.0524 5.92111 12.4971L5.92112 12.4971ZM6.76753 13.2767L7.09964 13.6088L6.61074 14.0977L6.2856 13.7726L6.76753 13.2767ZM6.60377 5.28536L7.09965 5.76739L6.76754 6.09949L6.27863 5.61059L6.60377 5.28536ZM4.69191 9.45724H5.38382V9.91843L4.69191 9.91854V9.45724Z" fill="#909AA3"/>
<path d="M6.77734 9.92188C6.80561 10.4001 6.92131 10.8691 7.11871 11.3056H9.00057C8.9073 10.8499 8.85408 10.3868 8.84138 9.92188H6.77734Z" fill="#909AA3"/>
<path d="M13.206 6.69252H14.147C14.2503 6.6979 14.3446 6.6337 14.3776 6.53562L14.5436 6.0006H14.8803C14.9534 6.20739 15.1204 6.36728 15.3301 6.43159C15.5399 6.49579 15.7677 6.45665 15.9441 6.32618C16.1205 6.19572 16.2245 5.98939 16.2245 5.77001C16.2245 5.55064 16.1205 5.34418 15.9441 5.21372C15.7677 5.08326 15.5399 5.04424 15.3301 5.10844C15.1204 5.17264 14.9534 5.33251 14.8803 5.53931H14.3776C14.2742 5.53393 14.1799 5.59801 14.147 5.6962L13.9809 6.23122H12.5325C11.9654 5.92668 11.3314 5.76819 10.6875 5.77003C11.3609 5.77003 11.9375 6.50108 12.2581 7.61506L14.0086 7.61495C13.79 7.26807 13.5193 6.95691 13.206 6.69256L13.206 6.69252Z" fill="#909AA3"/>
<path d="M9.11768 11.7656H7.36719C8.08232 12.9116 9.33729 13.6088 10.6883 13.6107C10.0149 13.6107 9.43836 12.8795 9.11782 11.7656H9.11768Z" fill="#909AA3"/>
<path d="M7.11871 8.07031C6.9213 8.50678 6.80559 8.97588 6.77734 9.454H8.85297C8.86407 8.98915 8.9158 8.52611 9.00746 8.07031H7.11871Z" fill="#909AA3"/>
<path d="M9.30469 9.454H12.0722C12.0615 8.98856 12.0058 8.52509 11.9062 8.07031H9.47532C9.37415 8.525 9.31694 8.98836 9.30469 9.454Z" fill="#909AA3"/>
<path d="M7.36733 7.61065H9.11782C9.43836 6.4967 10.0149 5.76562 10.6884 5.76562L10.6883 5.76574C9.33743 5.76746 8.08247 6.46462 7.36719 7.61065L7.36733 7.61065Z" fill="#909AA3"/>
<path d="M9.47534 11.3056H11.9016C12.0028 10.8509 12.06 10.3875 12.0722 9.92188H9.30469C9.31693 10.3875 9.37417 10.8509 9.47534 11.3056Z" fill="#909AA3"/>
<path d="M12.375 11.3056H14.2569C14.4582 10.8699 14.5779 10.4008 14.6097 9.92188H12.5341C12.5215 10.3868 12.4683 10.8499 12.375 11.3056Z" fill="#909AA3"/>
<path d="M10.6885 6.22656C10.2918 6.22656 9.86979 6.74772 9.59766 7.61025H11.7794C11.5072 6.74772 11.0853 6.22656 10.6885 6.22656H10.6885Z" fill="#909AA3"/>
<path d="M10.6885 13.1493C11.0852 13.1493 11.5072 12.6282 11.7794 11.7656H9.59766C9.8698 12.6282 10.2918 13.1493 10.6885 13.1493H10.6885Z" fill="#909AA3"/>
<path d="M12.375 8.07031C12.4683 8.52603 12.5215 8.98903 12.5341 9.454H14.6097C14.5814 8.97588 14.4657 8.50678 14.2684 8.07031H12.375Z" fill="#909AA3"/>
<path d="M10.6875 13.6106C11.3314 13.6124 11.9653 13.4538 12.5325 13.1493H13.99L14.1677 13.6843V13.6844C14.1983 13.7752 14.2819 13.8376 14.3775 13.8412H14.8803C14.9534 14.048 15.1204 14.208 15.3301 14.2722C15.5399 14.3364 15.7677 14.2973 15.9441 14.1668C16.1205 14.0363 16.2245 13.83 16.2245 13.6106C16.2245 13.3913 16.1205 13.1848 15.9441 13.0543C15.7676 12.9239 15.5399 12.8849 15.3301 12.9491C15.1204 13.0133 14.9534 13.1731 14.8803 13.3799H14.5436L14.3775 12.8449C14.3446 12.7468 14.2503 12.6827 14.1469 12.6881H13.206C13.5194 12.4237 13.79 12.1125 14.0086 11.7656H12.2581C11.9376 12.8795 11.361 13.6107 10.6875 13.6107L10.6875 13.6106Z" fill="#909AA3"/>
<path d="M15.2747 7.94446L15.4431 7.60995H16.0335C16.1066 7.81686 16.2735 7.97674 16.4833 8.04093C16.6931 8.10512 16.9209 8.06611 17.0972 7.93565C17.2736 7.80518 17.3776 7.59873 17.3776 7.37936C17.3776 7.15997 17.2736 6.95364 17.0972 6.82319C16.9209 6.69272 16.693 6.65358 16.4833 6.71778C16.2735 6.78199 16.1067 6.94197 16.0335 7.14877H15.3001C15.2132 7.149 15.1339 7.19809 15.0949 7.27557L14.9264 7.60996H14.0039H14.004C14.0966 7.75794 14.179 7.91207 14.2508 8.07127H15.0695C15.1563 8.07104 15.2356 8.02193 15.2747 7.94446Z" fill="#909AA3"/>
<path d="M14.9256 11.766L15.094 12.1004H15.0941C15.1331 12.178 15.2124 12.2269 15.2993 12.2272H16.0327C16.1058 12.4341 16.2727 12.594 16.4825 12.6582C16.6923 12.7224 16.9201 12.6833 17.0965 12.5528C17.2728 12.4223 17.3768 12.216 17.3768 11.9966C17.3768 11.7772 17.2728 11.5709 17.0965 11.4404C16.9201 11.3098 16.6923 11.2708 16.4825 11.335C16.2727 11.3992 16.1059 11.5591 16.0327 11.766H15.4423L15.274 11.4316H15.2739C15.2348 11.354 15.1555 11.305 15.0687 11.3047H14.2545C14.1829 11.4639 14.1004 11.618 14.0078 11.766L14.9256 11.766Z" fill="#909AA3"/>
<path d="M16.9157 8.76572C16.7117 8.76629 16.5137 8.83461 16.3525 8.95981C16.1915 9.08501 16.0765 9.25998 16.0255 9.4575H14.6094V9.6881V9.9187H16.0369L16.037 9.91882C16.0951 10.1435 16.2356 10.338 16.4307 10.4637C16.6259 10.5893 16.8611 10.6368 17.0897 10.5967C17.3182 10.5566 17.5233 10.4318 17.664 10.2471C17.8046 10.0626 17.8705 9.83184 17.8485 9.6008C17.8266 9.36977 17.7184 9.15552 17.5455 9.0008C17.3726 8.84596 17.1477 8.76208 16.9157 8.76574L16.9157 8.76572ZM16.9157 10.1494C16.7934 10.1494 16.6761 10.1008 16.5895 10.0144C16.503 9.92785 16.4544 9.81055 16.4544 9.6882C16.4544 9.56586 16.503 9.44856 16.5895 9.36204C16.6761 9.27553 16.7934 9.22689 16.9157 9.22689C17.0381 9.22689 17.1554 9.27553 17.2419 9.36204C17.3284 9.44856 17.3769 9.56586 17.3769 9.6882C17.3769 9.81055 17.3284 9.92784 17.2419 10.0144C17.1554 10.1008 17.0381 10.1494 16.9157 10.1494Z" fill="#909AA3"/>
</svg>
