<svg width="20" height="20" viewBox="0 0 20 20" fill="none" xmlns="http://www.w3.org/2000/svg">
<rect width="20" height="20" rx="10" fill="#222426"/>
<g clip-path="url(#clip0_7790_13772)">
<path d="M4 10V16H16V4H10H4V10ZM13.6698 9.5215C13.9746 9.59763 14.2068 9.7345 14.4216 9.955C14.5311 10.072 14.695 10.2869 14.7089 10.3398C14.7126 10.3555 14.1914 10.705 13.8749 10.9004C13.8633 10.9082 13.8164 10.8595 13.7654 10.783C13.6113 10.5584 13.4489 10.4609 13.201 10.4433C12.8376 10.4196 12.6033 10.6094 12.6051 10.9278C12.6033 11.0058 12.6209 11.0841 12.6558 11.1524C12.736 11.3185 12.8864 11.4179 13.351 11.6193C14.2105 11.9883 14.5776 12.2324 14.806 12.5781C15.0618 12.9648 15.1184 13.582 14.9466 14.0429C14.7554 14.5409 14.2825 14.8806 13.6184 14.992C13.4132 15.0291 12.925 15.0231 12.7041 14.9823C12.2219 14.8964 11.7648 14.6579 11.4835 14.3455C11.3721 14.2244 11.1572 13.906 11.1711 13.8846C11.1771 13.8767 11.2259 13.8456 11.2806 13.8141C11.3354 13.7826 11.5364 13.6656 11.7261 13.5561L12.0719 13.3551L12.1443 13.4624C12.2459 13.6165 12.4664 13.8276 12.5995 13.8978C12.9824 14.101 13.5078 14.0718 13.7676 13.8393C13.873 13.7515 13.9319 13.6165 13.924 13.48C13.924 13.3413 13.9064 13.279 13.834 13.1751C13.7403 13.0424 13.5509 12.9291 13.0098 12.6948C12.3906 12.427 12.1229 12.2631 11.881 11.9995C11.7288 11.8255 11.6155 11.6208 11.551 11.3999C11.506 11.23 11.4944 10.804 11.5296 10.6341C11.6568 10.0345 12.1098 9.61863 12.76 9.49563C12.9711 9.45475 13.4627 9.4705 13.6698 9.5215ZM10.8535 10.0236L10.8572 10.5138H9.29463V14.9534H8.18913V10.5138H6.62875V10.0334C6.62875 9.76563 6.63475 9.54325 6.64225 9.53725C6.64825 9.52938 7.59738 9.52563 8.74975 9.5275L10.8475 9.5335L10.8535 10.0236Z" fill="#909AA3"/>
</g>
<defs>
<clipPath id="clip0_7790_13772">
<rect width="12" height="12" fill="white" transform="translate(4 4)"/>
</clipPath>
</defs>
</svg>
